<svg width="150" height="150" viewBox="0 0 150 150" fill="none" xmlns="http://www.w3.org/2000/svg">
<g clip-path="url(#clip0_160_10627)">
<path d="M29.3508 104.644C30.9642 104.644 32.3795 104.959 33.5968 105.59C34.8288 106.221 35.7748 107.123 36.4348 108.296C37.1095 109.455 37.4468 110.804 37.4468 112.344C37.4468 113.884 37.1095 115.233 36.4348 116.392C35.7748 117.536 34.8288 118.423 33.5968 119.054C32.3795 119.685 30.9642 120 29.3508 120H23.9828V104.644H29.3508ZM29.2408 117.382C30.8542 117.382 32.1008 116.942 32.9808 116.062C33.8608 115.182 34.3008 113.943 34.3008 112.344C34.3008 110.745 33.8608 109.499 32.9808 108.604C32.1008 107.695 30.8542 107.24 29.2408 107.24H27.0628V117.382H29.2408ZM48.0746 107.13V110.98H53.2446V113.422H48.0746V117.492H53.9046V120H44.9946V104.622H53.9046V107.13H48.0746ZM65.0257 117.558H70.0857V120H61.9457V104.644H65.0257V117.558ZM80.3656 104.644V120H77.2856V104.644H80.3656ZM99.3428 109.264C98.9908 108.619 98.5068 108.127 97.8908 107.79C97.2748 107.453 96.5561 107.284 95.7348 107.284C94.8255 107.284 94.0188 107.489 93.3148 107.9C92.6108 108.311 92.0608 108.897 91.6648 109.66C91.2688 110.423 91.0708 111.303 91.0708 112.3C91.0708 113.327 91.2688 114.221 91.6648 114.984C92.0755 115.747 92.6401 116.333 93.3588 116.744C94.0775 117.155 94.9135 117.36 95.8668 117.36C97.0401 117.36 98.0008 117.052 98.7488 116.436C99.4968 115.805 99.9881 114.933 100.223 113.818H94.9428V111.464H103.259V114.148C103.053 115.219 102.613 116.209 101.939 117.118C101.264 118.027 100.391 118.761 99.3208 119.318C98.2648 119.861 97.0768 120.132 95.7568 120.132C94.2755 120.132 92.9335 119.802 91.7308 119.142C90.5428 118.467 89.6041 117.536 88.9148 116.348C88.2401 115.16 87.9028 113.811 87.9028 112.3C87.9028 110.789 88.2401 109.44 88.9148 108.252C89.6041 107.049 90.5428 106.118 91.7308 105.458C92.9335 104.783 94.2681 104.446 95.7348 104.446C97.4655 104.446 98.9688 104.871 100.245 105.722C101.521 106.558 102.401 107.739 102.885 109.264H99.3428ZM117.908 120.154C116.47 120.154 115.15 119.817 113.948 119.142C112.745 118.467 111.792 117.536 111.088 116.348C110.384 115.145 110.032 113.789 110.032 112.278C110.032 110.782 110.384 109.44 111.088 108.252C111.792 107.049 112.745 106.111 113.948 105.436C115.15 104.761 116.47 104.424 117.908 104.424C119.36 104.424 120.68 104.761 121.868 105.436C123.07 106.111 124.016 107.049 124.706 108.252C125.41 109.44 125.762 110.782 125.762 112.278C125.762 113.789 125.41 115.145 124.706 116.348C124.016 117.536 123.07 118.467 121.868 119.142C120.665 119.817 119.345 120.154 117.908 120.154ZM117.908 117.404C118.832 117.404 119.646 117.199 120.35 116.788C121.054 116.363 121.604 115.761 122 114.984C122.396 114.207 122.594 113.305 122.594 112.278C122.594 111.251 122.396 110.357 122 109.594C121.604 108.817 121.054 108.223 120.35 107.812C119.646 107.401 118.832 107.196 117.908 107.196C116.984 107.196 116.162 107.401 115.444 107.812C114.74 108.223 114.19 108.817 113.794 109.594C113.398 110.357 113.2 111.251 113.2 112.278C113.2 113.305 113.398 114.207 113.794 114.984C114.19 115.761 114.74 116.363 115.444 116.788C116.162 117.199 116.984 117.404 117.908 117.404Z" fill="#27292E"/>
<path d="M47.5021 150L45.3461 146.192H44.4221V150H42.4621V140.228H46.1301C46.8861 140.228 47.5301 140.363 48.0621 140.634C48.5941 140.895 48.9908 141.255 49.2521 141.712C49.5228 142.16 49.6581 142.664 49.6581 143.224C49.6581 143.868 49.4714 144.451 49.0981 144.974C48.7248 145.487 48.1694 145.842 47.4321 146.038L49.7701 150H47.5021ZM44.4221 144.722H46.0601C46.5921 144.722 46.9888 144.596 47.2501 144.344C47.5114 144.083 47.6421 143.723 47.6421 143.266C47.6421 142.818 47.5114 142.473 47.2501 142.23C46.9888 141.978 46.5921 141.852 46.0601 141.852H44.4221V144.722ZM60.0627 140.228V150H58.1027V140.228H60.0627ZM72.0871 140.228C73.1137 140.228 74.0144 140.429 74.7891 140.83C75.5731 141.231 76.1751 141.805 76.5951 142.552C77.0244 143.289 77.2391 144.148 77.2391 145.128C77.2391 146.108 77.0244 146.967 76.5951 147.704C76.1751 148.432 75.5731 148.997 74.7891 149.398C74.0144 149.799 73.1137 150 72.0871 150H68.6711V140.228H72.0871ZM72.0171 148.334C73.0437 148.334 73.8371 148.054 74.3971 147.494C74.9571 146.934 75.2371 146.145 75.2371 145.128C75.2371 144.111 74.9571 143.317 74.3971 142.748C73.8371 142.169 73.0437 141.88 72.0171 141.88H70.6311V148.334H72.0171ZM87.3381 141.81V144.26H90.6281V145.814H87.3381V148.404H91.0481V150H85.3781V140.214H91.0481V141.81H87.3381ZM104.541 150L102.385 146.192H101.461V150H99.5012V140.228H103.169C103.925 140.228 104.569 140.363 105.101 140.634C105.633 140.895 106.03 141.255 106.291 141.712C106.562 142.16 106.697 142.664 106.697 143.224C106.697 143.868 106.51 144.451 106.137 144.974C105.764 145.487 105.208 145.842 104.471 146.038L106.809 150H104.541ZM101.461 144.722H103.099C103.631 144.722 104.028 144.596 104.289 144.344C104.55 144.083 104.681 143.723 104.681 143.266C104.681 142.818 104.55 142.473 104.289 142.23C104.028 141.978 103.631 141.852 103.099 141.852H101.461V144.722Z" fill="#8B8D92"/>
<g clip-path="url(#clip1_160_10627)">
<path d="M106 46.3088C106 58.0983 94.2699 77.9459 73.3386 77.9459H41L43.6904 67.1839L46.4884 56.0433L48.4793 48.0934L49.2326 45.0108L54.7748 23C54.7748 23 65.644 23 81.0331 23H83.4007C83.6159 23 83.8311 23 83.9925 23C100.081 23.2704 106 34.6814 106 46.3088Z" fill="#009D06"/>
<path d="M93.8929 26.7316C93.5162 26.6775 93.1396 26.6775 92.7629 26.6775C91.0949 26.6775 89.4268 26.6775 87.705 26.6775C87.0593 24.7847 85.7141 23.649 83.9384 23H80.979C79.2033 23.703 77.8581 24.8387 77.2662 26.7316C75.3829 26.7316 73.5535 26.7316 71.724 26.7316C70.594 26.7316 69.8945 27.3265 69.8945 28.2458C69.8945 29.2193 70.594 29.7601 71.7778 29.7601C73.392 29.7601 75.0063 29.7601 76.5667 29.7601C76.8358 29.7601 77.2124 29.9223 77.3738 30.0846C78.0195 30.9499 78.6652 31.9233 79.3647 32.9508C79.2571 33.0049 79.2033 33.0049 79.0957 33.059C75.2753 34.6273 72.854 37.4395 72.5311 41.6037C72.3159 44.6323 72.4235 47.6608 72.4235 50.6893C72.4235 51.7709 73.2844 52.7984 74.3068 52.9607C75.1677 53.1229 76.0824 53.0688 77.051 53.1229C77.051 51.4464 76.9972 49.9322 77.051 48.4179C77.2124 45.0108 80.5485 42.5231 83.8308 43.4425C86.4674 44.1455 87.974 46.2006 87.974 49.1209V53.0688C88.6735 53.0688 89.3192 53.0688 89.9111 53.0688C91.6329 53.0147 92.5477 52.0413 92.6015 50.3107C92.6015 47.823 92.6553 45.2812 92.6015 42.7935C92.6015 41.0088 92.2248 39.2783 91.3101 37.7099C90.0187 35.3845 88.0278 33.8161 85.6065 33.059C86.1983 32.2478 86.8978 31.4907 87.3821 30.6254C87.705 30.0846 87.974 29.8682 88.5659 29.8682C90.2339 29.8682 91.902 29.8682 93.57 29.8682C94.431 29.8682 95.1305 29.2193 95.1843 28.5162C95.3457 27.705 94.7 26.8938 93.8929 26.7316ZM82.5394 31.3825C80.8175 31.3825 79.4185 30.0305 79.4185 28.354C79.3647 26.6775 80.9252 25.1632 82.647 25.2173C84.2074 25.2714 85.6603 26.7856 85.6065 28.4081C85.6065 30.0846 84.2074 31.3825 82.5394 31.3825Z" fill="white"/>
<path d="M81.4098 57.7738C79.9032 56.9626 79.4189 55.6647 79.4727 53.9882C79.5803 52.2035 79.4727 50.4189 79.5265 48.5801C79.5265 46.9577 80.6565 45.7139 82.2707 45.5516C83.8312 45.3894 85.3916 46.471 85.4992 48.0934C85.6068 50.5811 85.553 53.0688 85.4992 55.5025C85.4454 56.6382 84.5307 57.233 83.6697 57.7738C82.8626 57.7738 82.1093 57.7738 81.4098 57.7738Z" fill="white"/>
<path d="M74.2533 59.7748C74.1995 58.2606 73.0157 57.2871 71.6705 56.5841C71.1863 56.3137 70.702 55.827 70.4868 55.3402C69.5182 53.0148 68.6035 50.6893 67.6887 48.3097C66.7202 45.9302 65.4288 45.0649 62.846 45.0108C61.447 45.0108 59.9942 45.0108 58.4338 45.0108C58.4338 44.2537 58.4338 43.6588 58.4338 43.0098C58.4338 42.0364 58.0033 41.5497 57.0886 41.5497C55.3129 41.4956 53.5911 41.5497 51.8154 41.5497C50.9545 41.5497 50.524 42.0364 50.524 42.9558C50.524 43.6047 50.524 44.2537 50.524 45.0108C50.0935 45.0108 49.6093 45.0108 49.1788 45.0108L48.4255 48.0934C53.2144 48.0393 57.9495 48.0393 62.7384 48.0934C63.3841 48.0934 64.4065 48.6342 64.6755 49.175C65.6978 51.3383 66.505 53.6637 67.4197 56.0433H46.4346L43.6904 67.1839L41 77.9459H41.2152C42.7219 77.7296 43.6366 76.5939 43.6904 74.8093C43.6904 73.7276 43.6904 72.646 43.6904 71.5644H65.3212C65.3212 72.646 65.3212 73.6736 65.3212 74.647C65.3212 76.5398 66.2897 77.7296 67.7964 77.9459C67.9578 77.9459 68.0654 78 68.2268 78C68.4421 78 68.6035 78 68.8187 77.9459C70.3253 77.7296 71.2401 76.4858 71.2939 74.647C71.2939 73.6195 71.2939 72.592 71.2939 71.5103H74.3071C74.3071 67.5084 74.4147 63.6686 74.2533 59.7748ZM68.2806 65.0207C66.774 65.0747 65.4826 63.7768 65.4288 62.2085C65.4288 60.6401 66.6664 59.3422 68.173 59.3422C69.6796 59.3422 70.971 60.6401 70.971 62.2085C70.971 63.6686 69.6796 64.9666 68.2806 65.0207Z" fill="white"/>
</g>
</g>
<defs>
<clipPath id="clip0_160_10627">
<rect width="150" height="150" fill="white"/>
</clipPath>
<clipPath id="clip1_160_10627">
<rect width="65" height="55" fill="white" transform="translate(41 23)"/>
</clipPath>
</defs>
</svg>
