<svg width="150" height="150" viewBox="0 0 150 150" fill="none" xmlns="http://www.w3.org/2000/svg">
<g clip-path="url(#clip0_160_10627)">
<path d="M30.5387 104.556C32.1667 104.556 33.5893 104.879 34.8067 105.524C36.024 106.169 36.9627 107.079 37.6227 108.252C38.2973 109.411 38.6347 110.753 38.6347 112.278C38.6347 113.789 38.2973 115.131 37.6227 116.304C36.9627 117.477 36.0167 118.387 34.7847 119.032C33.5673 119.677 32.152 120 30.5387 120H24.7527V104.556H30.5387ZM30.2967 116.744C31.7193 116.744 32.8267 116.355 33.6187 115.578C34.4107 114.801 34.8067 113.701 34.8067 112.278C34.8067 110.855 34.4107 109.748 33.6187 108.956C32.8267 108.164 31.7193 107.768 30.2967 107.768H28.5147V116.744H30.2967ZM49.1612 107.57V110.694H54.1992V113.598H49.1612V116.986H54.8592V120H45.3992V104.556H54.8592V107.57H49.1612ZM65.7256 117.096H70.6536V120H61.9636V104.556H65.7256V117.096ZM80.8721 104.556V120H77.1101V104.556H80.8721ZM98.5125 109.44C98.2338 108.927 97.8305 108.538 97.3025 108.274C96.7892 107.995 96.1805 107.856 95.4765 107.856C94.2592 107.856 93.2838 108.259 92.5505 109.066C91.8172 109.858 91.4505 110.921 91.4505 112.256C91.4505 113.679 91.8318 114.793 92.5945 115.6C93.3718 116.392 94.4352 116.788 95.7845 116.788C96.7085 116.788 97.4858 116.553 98.1165 116.084C98.7618 115.615 99.2312 114.94 99.5245 114.06H94.7505V111.288H102.934V114.786C102.656 115.725 102.179 116.597 101.504 117.404C100.844 118.211 100.001 118.863 98.9745 119.362C97.9478 119.861 96.7892 120.11 95.4985 120.11C93.9732 120.11 92.6092 119.78 91.4065 119.12C90.2185 118.445 89.2872 117.514 88.6125 116.326C87.9525 115.138 87.6225 113.781 87.6225 112.256C87.6225 110.731 87.9525 109.374 88.6125 108.186C89.2872 106.983 90.2185 106.052 91.4065 105.392C92.5945 104.717 93.9512 104.38 95.4765 104.38C97.3245 104.38 98.8792 104.827 100.14 105.722C101.416 106.617 102.26 107.856 102.67 109.44H98.5125ZM116.984 120.154C115.532 120.154 114.198 119.817 112.98 119.142C111.778 118.467 110.817 117.529 110.098 116.326C109.394 115.109 109.042 113.745 109.042 112.234C109.042 110.723 109.394 109.367 110.098 108.164C110.817 106.961 111.778 106.023 112.98 105.348C114.198 104.673 115.532 104.336 116.984 104.336C118.436 104.336 119.764 104.673 120.966 105.348C122.184 106.023 123.137 106.961 123.826 108.164C124.53 109.367 124.882 110.723 124.882 112.234C124.882 113.745 124.53 115.109 123.826 116.326C123.122 117.529 122.169 118.467 120.966 119.142C119.764 119.817 118.436 120.154 116.984 120.154ZM116.984 116.722C118.216 116.722 119.199 116.311 119.932 115.49C120.68 114.669 121.054 113.583 121.054 112.234C121.054 110.87 120.68 109.785 119.932 108.978C119.199 108.157 118.216 107.746 116.984 107.746C115.738 107.746 114.74 108.149 113.992 108.956C113.259 109.763 112.892 110.855 112.892 112.234C112.892 113.598 113.259 114.691 113.992 115.512C114.74 116.319 115.738 116.722 116.984 116.722Z" fill="white"/>
<path d="M47.5021 150L45.3461 146.192H44.4221V150H42.4621V140.228H46.1301C46.8861 140.228 47.5301 140.363 48.0621 140.634C48.5941 140.895 48.9908 141.255 49.2521 141.712C49.5228 142.16 49.6581 142.664 49.6581 143.224C49.6581 143.868 49.4714 144.451 49.0981 144.974C48.7248 145.487 48.1694 145.842 47.4321 146.038L49.7701 150H47.5021ZM44.4221 144.722H46.0601C46.5921 144.722 46.9888 144.596 47.2501 144.344C47.5114 144.083 47.6421 143.723 47.6421 143.266C47.6421 142.818 47.5114 142.473 47.2501 142.23C46.9888 141.978 46.5921 141.852 46.0601 141.852H44.4221V144.722ZM60.0627 140.228V150H58.1027V140.228H60.0627ZM72.0871 140.228C73.1137 140.228 74.0144 140.429 74.7891 140.83C75.5731 141.231 76.1751 141.805 76.5951 142.552C77.0244 143.289 77.2391 144.148 77.2391 145.128C77.2391 146.108 77.0244 146.967 76.5951 147.704C76.1751 148.432 75.5731 148.997 74.7891 149.398C74.0144 149.799 73.1137 150 72.0871 150H68.6711V140.228H72.0871ZM72.0171 148.334C73.0437 148.334 73.8371 148.054 74.3971 147.494C74.9571 146.934 75.2371 146.145 75.2371 145.128C75.2371 144.111 74.9571 143.317 74.3971 142.748C73.8371 142.169 73.0437 141.88 72.0171 141.88H70.6311V148.334H72.0171ZM87.3381 141.81V144.26H90.6281V145.814H87.3381V148.404H91.0481V150H85.3781V140.214H91.0481V141.81H87.3381ZM104.541 150L102.385 146.192H101.461V150H99.5012V140.228H103.169C103.925 140.228 104.569 140.363 105.101 140.634C105.633 140.895 106.03 141.255 106.291 141.712C106.562 142.16 106.697 142.664 106.697 143.224C106.697 143.868 106.51 144.451 106.137 144.974C105.764 145.487 105.208 145.842 104.471 146.038L106.809 150H104.541ZM101.461 144.722H103.099C103.631 144.722 104.028 144.596 104.289 144.344C104.55 144.083 104.681 143.723 104.681 143.266C104.681 142.818 104.55 142.473 104.289 142.23C104.028 141.978 103.631 141.852 103.099 141.852H101.461V144.722Z" fill="#8B8D92"/>
<g clip-path="url(#clip1_160_10627)">
<path d="M106 46.3088C106 58.0983 94.2699 77.9459 73.3386 77.9459H41L43.6904 67.1839L46.4884 56.0433L48.4793 48.0934L49.2326 45.0108L54.7748 23C54.7748 23 65.644 23 81.0331 23H83.4007C83.6159 23 83.8311 23 83.9925 23C100.081 23.2704 106 34.6814 106 46.3088Z" fill="#009D06"/>
<path d="M93.8934 26.7316C93.5167 26.6775 93.14 26.6775 92.7634 26.6775C91.0953 26.6775 89.4273 26.6775 87.7055 26.6775C87.0598 24.7847 85.7146 23.649 83.9389 23H80.9795C79.2038 23.703 77.8586 24.8387 77.2667 26.7316C75.3834 26.7316 73.554 26.7316 71.7245 26.7316C70.5945 26.7316 69.895 27.3265 69.895 28.2458C69.895 29.2193 70.5945 29.7601 71.7783 29.7601C73.3925 29.7601 75.0068 29.7601 76.5672 29.7601C76.8362 29.7601 77.2129 29.9223 77.3743 30.0846C78.02 30.9499 78.6657 31.9233 79.3652 32.9508C79.2576 33.0049 79.2038 33.0049 79.0962 33.059C75.2758 34.6273 72.8545 37.4395 72.5316 41.6037C72.3164 44.6323 72.424 47.6608 72.424 50.6893C72.424 51.7709 73.2849 52.7984 74.3073 52.9607C75.1682 53.1229 76.0829 53.0688 77.0515 53.1229C77.0515 51.4464 76.9977 49.9322 77.0515 48.4179C77.2129 45.0108 80.549 42.5231 83.8313 43.4425C86.4679 44.1455 87.9745 46.2006 87.9745 49.1209V53.0688C88.674 53.0688 89.3197 53.0688 89.9116 53.0688C91.6334 53.0147 92.5482 52.0413 92.602 50.3107C92.602 47.823 92.6558 45.2812 92.602 42.7935C92.602 41.0088 92.2253 39.2783 91.3106 37.7099C90.0192 35.3845 88.0283 33.8161 85.6069 33.059C86.1988 32.2478 86.8983 31.4907 87.3826 30.6254C87.7054 30.0846 87.9745 29.8682 88.5664 29.8682C90.2344 29.8682 91.9025 29.8682 93.5705 29.8682C94.4314 29.8682 95.1309 29.2193 95.1848 28.5162C95.3462 27.705 94.7005 26.8938 93.8934 26.7316ZM82.5399 31.3825C80.818 31.3825 79.419 30.0305 79.419 28.354C79.3652 26.6775 80.9256 25.1632 82.6475 25.2173C84.2079 25.2714 85.6607 26.7856 85.6069 28.4081C85.6069 30.0846 84.2079 31.3825 82.5399 31.3825Z" fill="white"/>
<path d="M81.4098 57.7738C79.9032 56.9626 79.4189 55.6647 79.4727 53.9882C79.5803 52.2035 79.4727 50.4189 79.5265 48.5801C79.5265 46.9577 80.6565 45.7139 82.2707 45.5516C83.8312 45.3894 85.3916 46.471 85.4992 48.0934C85.6068 50.5811 85.553 53.0688 85.4992 55.5025C85.4454 56.6382 84.5307 57.233 83.6697 57.7738C82.8626 57.7738 82.1093 57.7738 81.4098 57.7738Z" fill="white"/>
<path d="M74.2533 59.7748C74.1995 58.2606 73.0157 57.2871 71.6705 56.5841C71.1863 56.3137 70.702 55.827 70.4868 55.3402C69.5182 53.0148 68.6035 50.6893 67.6887 48.3097C66.7202 45.9302 65.4288 45.0649 62.846 45.0108C61.447 45.0108 59.9942 45.0108 58.4338 45.0108C58.4338 44.2537 58.4338 43.6588 58.4338 43.0098C58.4338 42.0364 58.0033 41.5497 57.0886 41.5497C55.3129 41.4956 53.5911 41.5497 51.8154 41.5497C50.9545 41.5497 50.524 42.0364 50.524 42.9558C50.524 43.6047 50.524 44.2537 50.524 45.0108C50.0935 45.0108 49.6093 45.0108 49.1788 45.0108L48.4255 48.0934C53.2144 48.0393 57.9495 48.0393 62.7384 48.0934C63.3841 48.0934 64.4065 48.6342 64.6755 49.175C65.6978 51.3383 66.505 53.6637 67.4197 56.0433H46.4346L43.6904 67.1839L41 77.9459H41.2152C42.7219 77.7296 43.6366 76.5939 43.6904 74.8093C43.6904 73.7276 43.6904 72.646 43.6904 71.5644H65.3212C65.3212 72.646 65.3212 73.6736 65.3212 74.647C65.3212 76.5398 66.2897 77.7296 67.7964 77.9459C67.9578 77.9459 68.0654 78 68.2268 78C68.4421 78 68.6035 78 68.8187 77.9459C70.3253 77.7296 71.2401 76.4858 71.2939 74.647C71.2939 73.6195 71.2939 72.592 71.2939 71.5103H74.3071C74.3071 67.5084 74.4147 63.6686 74.2533 59.7748ZM68.2806 65.0207C66.774 65.0747 65.4826 63.7768 65.4288 62.2085C65.4288 60.6401 66.6664 59.3422 68.173 59.3422C69.6796 59.3422 70.971 60.6401 70.971 62.2085C70.971 63.6686 69.6796 64.9666 68.2806 65.0207Z" fill="white"/>
</g>
</g>
<defs>
<clipPath id="clip0_160_10627">
<rect width="150" height="150" fill="white"/>
</clipPath>
<clipPath id="clip1_160_10627">
<rect width="65" height="55" fill="white" transform="translate(41 23)"/>
</clipPath>
</defs>
</svg>
